<?xml version="1.0" standalone="no"?>
<!DOCTYPE svg PUBLIC "-//W3C//DTD SVG 20010904//EN"
 "http://www.w3.org/TR/2001/REC-SVG-20010904/DTD/svg10.dtd">
<svg version="1.0" xmlns="http://www.w3.org/2000/svg"
 width="961.000000pt" height="961.000000pt" viewBox="0 0 961.000000 961.000000"
 preserveAspectRatio="xMidYMid meet">
<metadata>
Created by potrace 1.14, written by Peter Selinger 2001-2017
</metadata>
<g transform="translate(0.000000,961.000000) scale(0.100000,-0.100000)"
fill="#000000" stroke="none">
<path d="M4538 9605 c-1 -1 -50 -5 -108 -9 -58 -3 -116 -8 -130 -10 -14 -3
-50 -7 -81 -11 -31 -3 -65 -7 -75 -9 -11 -2 -44 -7 -74 -11 -45 -6 -195 -34
-330 -61 -14 -3 -59 -14 -100 -25 -41 -11 -84 -22 -95 -24 -11 -3 -65 -18
-120 -35 -55 -17 -107 -33 -115 -35 -33 -9 -162 -56 -270 -98 -437 -171 -866
-419 -1230 -711 -210 -168 -490 -437 -638 -611 -336 -394 -595 -808 -782
-1245 -17 -41 -37 -88 -44 -105 -64 -147 -200 -576 -221 -697 -3 -14 -12 -53
-20 -85 -8 -32 -17 -78 -20 -103 -3 -25 -8 -52 -11 -61 -3 -10 -6 -30 -9 -45
-3 -27 -11 -79 -20 -130 -2 -11 -6 -52 -10 -90 -4 -38 -9 -78 -11 -88 -12 -65
-19 -259 -19 -516 1 -263 5 -373 20 -490 2 -19 7 -59 11 -89 3 -30 8 -63 10
-75 2 -12 6 -41 9 -66 3 -25 7 -56 10 -70 12 -58 16 -77 21 -110 3 -19 19 -91
36 -160 16 -69 31 -133 33 -143 7 -32 69 -237 102 -337 103 -315 318 -755 511
-1049 50 -77 188 -273 219 -311 215 -268 366 -433 573 -626 127 -117 399 -333
534 -423 22 -14 49 -33 62 -41 307 -204 725 -410 1084 -533 181 -63 523 -154
644 -172 21 -3 41 -7 45 -9 3 -2 30 -7 60 -11 30 -4 61 -8 70 -10 9 -1 41 -6
71 -10 30 -4 63 -9 73 -11 10 -2 48 -6 85 -9 37 -4 83 -8 102 -11 60 -6 320
-16 420 -17 99 0 353 11 405 18 17 2 60 6 97 10 37 3 75 8 86 10 10 2 43 6 73
10 100 12 293 47 392 71 32 8 62 14 87 19 55 10 372 107 485 148 453 165 876
396 1270 692 22 16 42 32 45 35 3 3 39 32 80 65 236 188 513 467 715 720 312
390 519 747 730 1260 41 98 103 287 150 451 30 105 27 96 59 239 25 113 32
145 42 204 3 18 7 42 9 51 2 10 7 40 11 67 3 26 8 57 10 68 2 11 6 45 9 75 3
30 7 64 10 75 19 95 28 734 12 900 -15 154 -34 305 -47 380 -5 28 -12 66 -14
85 -27 173 -104 475 -178 690 -143 418 -314 761 -563 1135 -92 138 -288 397
-347 459 -7 8 -36 40 -65 72 -87 100 -261 272 -409 404 -65 59 -193 162 -299
242 -86 64 -341 238 -349 238 -2 0 -45 25 -97 57 -171 103 -449 238 -664 323
-184 73 -574 191 -737 224 -90 18 -129 25 -168 31 -25 3 -63 10 -85 15 -22 5
-62 11 -90 14 -121 14 -142 17 -183 22 -23 3 -66 8 -95 10 -61 6 -654 14 -659
9z"/>
</g>
</svg>
