<?xml version="1.0" standalone="yes"?>
<svg xmlns="http://www.w3.org/2000/svg" width="800" height="800">
<path style="fill:#ffffff; stroke:none;" d="M0 0L0 429L1 429C7.25524 420.384 16.4256 422 26 422L85 422L334 422L404 422C412.461 422 423.772 420.401 427.768 430.015C430.705 437.08 423.827 445.214 420.397 451C410.14 468.299 400.105 485.731 389.799 503C347.781 573.409 306.539 644.301 265.011 715C253.463 734.66 242.025 754.388 230.397 774C226.42 780.708 221.622 791.725 212 789.883C203.083 788.177 198.521 774.957 194.397 768C181.578 746.381 168.663 724.797 156.15 703C105.423 614.637 48.8662 528.935 1 439L0 439L0 800L568 800L568 799C545.163 798.811 521.115 789.305 501 779.247C420.057 738.77 376.72 647.117 394.449 559C417.213 445.858 534.877 378.535 644 406.63C679.146 415.678 709.579 435.569 735 461C763.999 490.01 789.651 535.813 790 578L791 578L791 0L223 0L223 1C295.419 1.19983 363.025 59.3147 390.15 123C397.346 139.895 401.976 157.787 404.155 176C404.953 182.666 406.875 191.443 401.772 196.867C397.275 201.645 390.995 201 385 201L351 201L206 201L206 343L206 378C206 384.139 206.719 390.849 202.581 395.945C194.737 405.605 172.441 398.741 162 396.349C122.465 387.291 84.2964 366.68 57.2855 336C-12.1885 257.088 -13.6161 135.978 62.0008 60C77.857 44.068 95.89 30.8081 116 20.7531C137.452 10.0271 162.734 1.01611 187 1L169 0L131 0L0 0z"/>
<path style="fill:#010101; stroke:none;" d="M206 201L352 201L387 201C392.511 201 398.643 201.559 402.566 196.867C407.301 191.204 404.799 180.662 404.05 174C401.648 152.618 395.11 131.348 385.742 112C374.404 88.5833 358.292 67.5947 339 50.1697C237.13 -41.8418 65.9777 -0.635254 17.4252 128C8.75564 150.969 3.83086 176.432 4.00463 201C4.55882 279.352 51.6748 353.094 124 384.281C142.003 392.044 160.589 396.925 180 399.575C186.681 400.487 196.35 402.908 201.775 397.721C206.392 393.308 206 386.853 206 381L206 346L206 201M366.001 10.5332C356.664 12.8145 355.458 22.5609 359.44 30C370.525 50.7115 383.162 70.8268 395.201 91C439.197 164.723 481.696 239.342 525.8 313C536.132 330.255 546.057 347.753 556.4 365C560.399 371.669 564.643 380.288 573.999 378.252C582.238 376.459 585.703 366.499 589.6 360C599.743 343.086 609.457 325.915 619.6 309C661.532 239.075 703.339 168.831 743.719 98C755.008 78.1974 766.677 58.5492 778.4 39C782.613 31.9734 789.945 22.1987 783.347 14.2245C777.798 7.51746 764.689 10 757 10L683 10L467 10L399 10C388.648 10 376.079 8.07074 366.001 10.5332M591 601L738 601L773 601C778.411 600.998 784.647 601.251 788.566 596.775C793.525 591.112 790.709 579.741 789.95 573C787.264 549.157 779.103 525.051 767.691 504C756.17 482.747 740.496 463.052 722 447.439C639.509 377.805 513.713 385.685 441.17 466C424.015 484.992 411.251 507.157 402.192 531C393.502 553.871 388.968 580.535 390.039 605C393.44 682.664 437.467 749.926 508 783.219C526.233 791.826 546.09 796.696 566 799.282C572.436 800.118 583.69 802.261 588.566 796.772C591.997 792.909 591 786.765 591 782L591 745L591 601M8.00077 422.573C-1.33018 425.263 -1.35853 435.918 2.61883 443C14.1593 463.549 26.5939 483.616 38.4244 504C81.3246 577.918 125.524 651.082 168.424 725C178.517 742.391 188.827 759.662 199.011 777C203.02 783.825 207.541 792.439 216.999 790.018C224.947 787.983 229.011 777.504 232.719 771C242.866 753.202 253.65 735.768 263.85 718C303.878 648.274 345 579.039 386.201 510C397.9 490.396 409.427 470.685 420.989 451C425.164 443.892 432.699 434.33 426.146 426.34C420.439 419.383 406.952 422 399 422L326 422L107 422L40 422C30.1942 422 17.4512 419.847 8.00077 422.573z"/>
<path style="fill:#ffffff; stroke:none;" d="M790 594C780.692 606.5 753.045 601 739 601L591 601L591 748C591 761.268 596.55 790.393 585 799L585 800L791 800L791 655L791 614L790 594z"/>
</svg>
