<svg id="svg" version="1.1" xmlns="http://www.w3.org/2000/svg" xmlns:xlink="http://www.w3.org/1999/xlink" width="25" height="25" viewBox="0, 0, 400,404.551201011378"><g id="svgg"><path id="path3" d="" stroke="none" fill="#60e03c" fill-rule="evenodd"></path><path id="path4" d="" stroke="none" fill="#60a498" fill-rule="evenodd"></path><path id="path0" d="M184.000 5.330 C 181.779 6.503,181.260 7.006,180.783 8.452 C 180.194 10.236,180.510 13.806,181.339 14.755 C 181.650 15.110,182.220 16.030,182.608 16.800 C 182.995 17.570,183.422 18.290,183.556 18.400 C 183.690 18.510,184.158 19.320,184.596 20.200 C 185.034 21.080,185.495 21.890,185.620 22.000 C 185.745 22.110,186.544 23.460,187.396 25.000 C 188.248 26.540,189.584 28.790,190.366 30.000 C 191.148 31.210,192.115 32.830,192.515 33.600 C 193.907 36.278,194.765 37.731,195.092 37.965 C 195.274 38.094,195.759 38.965,196.172 39.900 C 196.584 40.835,197.074 41.600,197.261 41.600 C 197.447 41.600,197.600 41.831,197.600 42.113 C 197.600 42.574,199.837 46.378,200.714 47.409 C 200.905 47.634,201.398 48.579,201.808 49.509 C 202.218 50.439,202.699 51.200,202.877 51.200 C 203.055 51.200,203.200 51.384,203.200 51.608 C 203.200 51.832,203.693 52.777,204.295 53.708 C 204.898 54.639,205.624 55.850,205.910 56.400 C 206.196 56.950,206.866 58.120,207.400 59.000 C 207.933 59.880,208.758 61.309,209.231 62.175 C 209.705 63.041,210.342 63.999,210.646 64.303 C 210.951 64.608,211.200 65.006,211.200 65.188 C 211.200 65.371,211.915 66.663,212.789 68.060 C 213.663 69.457,214.688 71.230,215.068 72.000 C 215.448 72.770,215.871 73.490,216.008 73.600 C 216.145 73.710,217.023 75.150,217.959 76.800 C 220.349 81.016,221.487 82.936,221.870 83.400 C 222.051 83.620,222.522 84.430,222.917 85.200 C 223.311 85.970,224.167 87.500,224.819 88.600 C 225.471 89.700,226.307 91.185,226.676 91.900 C 227.046 92.615,227.495 93.200,227.674 93.200 C 227.853 93.200,228.000 93.397,228.000 93.638 C 228.000 93.879,228.954 95.634,230.119 97.538 C 231.284 99.442,232.347 101.284,232.480 101.632 C 232.613 101.979,233.410 103.329,234.250 104.632 C 236.122 107.534,236.913 108.899,237.999 111.100 C 238.460 112.035,238.964 112.801,239.119 112.801 C 239.273 112.802,239.733 113.612,240.140 114.601 C 240.546 115.591,241.041 116.400,241.240 116.400 C 241.438 116.400,241.600 116.567,241.600 116.771 C 241.600 117.150,244.386 122.037,244.809 122.400 C 244.937 122.510,245.359 123.230,245.747 124.000 C 246.135 124.770,247.062 126.390,247.805 127.600 C 248.549 128.810,249.444 130.424,249.794 131.186 C 250.144 131.948,250.575 132.668,250.750 132.786 C 250.925 132.904,251.766 134.260,252.617 135.800 C 253.469 137.340,254.398 138.838,254.683 139.129 C 254.967 139.419,255.200 139.801,255.200 139.977 C 255.200 140.245,258.695 146.373,260.004 148.400 C 260.217 148.730,260.760 149.630,261.211 150.400 C 261.661 151.170,262.461 152.520,262.988 153.400 C 263.516 154.280,264.343 155.720,264.827 156.600 C 265.311 157.480,265.818 158.290,265.954 158.400 C 266.181 158.585,266.689 159.464,268.382 162.600 C 269.543 164.751,271.356 167.795,271.598 168.000 C 271.728 168.110,272.702 169.730,273.762 171.600 C 277.028 177.360,277.285 177.794,277.546 178.000 C 277.686 178.110,278.119 178.830,278.508 179.600 C 278.898 180.370,279.654 181.720,280.188 182.600 C 280.722 183.480,281.564 184.965,282.059 185.900 C 282.554 186.835,283.104 187.600,283.280 187.600 C 283.456 187.600,283.600 187.856,283.600 188.169 C 283.600 189.087,285.976 191.200,287.007 191.200 C 287.527 191.200,288.064 191.380,288.200 191.600 C 288.336 191.820,288.797 192.000,289.224 192.000 C 289.651 192.000,290.000 191.820,290.000 191.600 C 290.000 191.380,290.352 191.200,290.781 191.200 C 292.636 191.200,294.087 189.756,296.008 186.000 C 296.290 185.450,296.628 184.910,296.760 184.800 C 296.892 184.690,297.257 184.150,297.572 183.600 C 297.887 183.050,298.768 181.520,299.531 180.200 C 300.293 178.880,301.191 177.260,301.527 176.600 C 301.863 175.940,302.262 175.310,302.415 175.200 C 302.680 175.009,303.742 173.147,305.331 170.088 C 305.734 169.314,306.319 168.424,306.631 168.111 C 306.944 167.799,307.200 167.385,307.200 167.191 C 307.200 166.998,307.740 166.040,308.400 165.062 C 309.060 164.084,309.600 163.085,309.600 162.842 C 309.600 162.599,309.745 162.400,309.923 162.400 C 310.101 162.400,310.580 161.635,310.987 160.700 C 311.395 159.765,311.856 158.910,312.011 158.800 C 312.166 158.690,312.686 157.880,313.166 157.000 C 314.730 154.134,315.392 153.037,315.876 152.510 C 316.137 152.225,316.578 151.363,316.856 150.596 C 317.134 149.828,317.502 149.200,317.675 149.200 C 317.848 149.200,318.274 148.615,318.621 147.900 C 319.514 146.063,320.859 143.682,322.120 141.708 C 322.714 140.777,323.200 139.847,323.200 139.641 C 323.200 139.435,323.350 139.207,323.533 139.133 C 323.717 139.060,324.561 137.740,325.410 136.200 C 326.258 134.660,327.055 133.310,327.180 133.200 C 327.305 133.090,327.766 132.283,328.204 131.406 C 328.642 130.529,329.214 129.583,329.476 129.302 C 329.737 129.021,330.178 128.163,330.456 127.396 C 330.734 126.628,331.114 126.000,331.301 126.000 C 331.488 126.000,331.908 125.415,332.235 124.700 C 332.562 123.985,333.354 122.590,333.994 121.600 C 334.634 120.610,335.523 119.080,335.969 118.200 C 336.415 117.320,337.492 115.479,338.361 114.109 C 339.230 112.739,340.056 111.254,340.197 110.809 C 340.338 110.364,340.601 110.000,340.780 110.000 C 340.960 110.000,341.212 109.685,341.341 109.300 C 341.469 108.915,342.298 107.430,343.183 106.000 C 344.067 104.570,345.083 102.770,345.440 102.000 C 345.797 101.230,346.226 100.510,346.391 100.400 C 346.557 100.290,347.085 99.480,347.565 98.600 C 349.786 94.525,350.233 93.765,350.700 93.271 C 350.975 92.981,351.200 92.585,351.200 92.391 C 351.200 92.198,351.740 91.240,352.400 90.262 C 353.060 89.284,353.600 88.285,353.600 88.042 C 353.600 87.799,353.753 87.600,353.939 87.600 C 354.126 87.600,354.616 86.835,355.028 85.900 C 355.441 84.965,355.894 84.110,356.035 84.000 C 356.177 83.890,356.689 83.080,357.173 82.200 C 357.657 81.320,358.487 79.880,359.018 79.000 C 359.549 78.120,360.302 76.770,360.692 76.000 C 361.081 75.230,361.515 74.510,361.655 74.400 C 361.948 74.170,363.190 72.121,364.443 69.800 C 364.919 68.920,365.429 68.110,365.576 68.000 C 365.724 67.890,366.088 67.200,366.385 66.466 C 366.682 65.732,367.128 64.922,367.376 64.666 C 367.815 64.212,369.514 61.416,370.818 59.000 C 372.507 55.871,373.018 54.985,373.244 54.800 C 373.378 54.690,373.809 53.970,374.200 53.200 C 374.591 52.430,375.046 51.710,375.211 51.600 C 375.375 51.490,375.801 50.770,376.156 50.000 C 376.512 49.230,377.333 47.790,377.981 46.800 C 378.629 45.810,379.477 44.370,379.865 43.600 C 380.252 42.830,380.801 41.962,381.085 41.671 C 381.368 41.381,381.600 40.963,381.600 40.743 C 381.600 40.524,382.115 39.592,382.745 38.672 C 383.375 37.752,384.017 36.595,384.172 36.100 C 384.327 35.605,384.594 35.200,384.766 35.200 C 384.938 35.200,385.419 34.435,385.834 33.500 C 386.250 32.565,386.729 31.620,386.900 31.400 C 387.604 30.495,389.301 27.797,389.652 27.026 C 389.859 26.572,390.640 25.210,391.388 24.000 C 392.135 22.790,393.065 21.170,393.453 20.400 C 393.841 19.630,394.263 18.910,394.391 18.800 C 397.482 16.148,398.761 6.400,396.018 6.400 C 395.820 6.400,395.342 6.085,394.957 5.700 C 394.019 4.762,185.769 4.397,184.000 5.330 M3.000 213.761 C 0.936 214.672,0.251 215.795,0.075 218.551 C -0.077 220.944,1.135 225.200,1.969 225.200 C 2.118 225.200,2.467 225.830,2.746 226.600 C 3.024 227.370,3.393 228.000,3.565 228.000 C 3.737 228.000,4.203 228.720,4.600 229.600 C 4.997 230.480,5.429 231.202,5.561 231.204 C 5.692 231.206,6.155 232.016,6.590 233.004 C 7.024 233.992,7.484 234.800,7.613 234.800 C 7.741 234.800,8.180 235.565,8.587 236.500 C 8.995 237.435,9.436 238.290,9.568 238.400 C 10.050 238.803,12.800 243.534,12.800 243.960 C 12.800 244.202,12.944 244.400,13.120 244.400 C 13.296 244.400,13.881 245.240,14.420 246.266 C 16.366 249.972,16.654 250.463,17.035 250.729 C 17.248 250.878,17.759 251.765,18.172 252.700 C 18.584 253.635,19.074 254.400,19.261 254.400 C 19.447 254.400,19.600 254.631,19.600 254.913 C 19.600 255.357,21.747 259.032,22.688 260.200 C 22.865 260.420,23.350 261.365,23.766 262.300 C 24.181 263.235,24.674 264.000,24.861 264.000 C 25.047 264.000,25.200 264.184,25.200 264.408 C 25.200 264.632,25.691 265.577,26.290 266.508 C 26.890 267.439,27.699 268.830,28.089 269.600 C 28.479 270.370,29.153 271.540,29.587 272.200 C 30.022 272.860,30.767 274.120,31.242 275.000 C 31.718 275.880,32.243 276.690,32.409 276.800 C 32.574 276.910,33.007 277.714,33.371 278.586 C 33.734 279.458,34.180 280.268,34.362 280.386 C 34.544 280.504,35.076 281.320,35.544 282.200 C 36.012 283.080,36.845 284.520,37.394 285.400 C 37.942 286.280,38.569 287.360,38.787 287.800 C 39.004 288.240,39.817 289.590,40.592 290.800 C 41.368 292.010,42.388 293.803,42.858 294.785 C 43.328 295.766,43.929 296.786,44.194 297.051 C 44.458 297.315,44.905 298.087,45.186 298.766 C 45.467 299.445,45.855 300.000,46.049 300.000 C 46.242 300.000,46.400 300.198,46.400 300.440 C 46.400 300.831,49.080 305.493,49.596 306.000 C 49.708 306.110,50.158 306.920,50.596 307.800 C 51.034 308.680,51.495 309.490,51.620 309.600 C 51.745 309.710,52.544 311.060,53.396 312.600 C 54.248 314.140,55.584 316.390,56.366 317.600 C 57.148 318.810,58.112 320.430,58.509 321.200 C 60.154 324.392,60.667 325.272,61.035 325.529 C 61.248 325.678,61.759 326.565,62.172 327.500 C 62.584 328.435,63.074 329.200,63.261 329.200 C 63.447 329.200,63.600 329.398,63.600 329.640 C 63.600 330.051,66.326 334.762,66.817 335.200 C 66.941 335.310,67.374 336.120,67.780 337.000 C 68.186 337.880,68.636 338.690,68.780 338.800 C 68.924 338.910,69.352 339.667,69.732 340.483 C 70.111 341.299,70.599 342.076,70.817 342.210 C 71.034 342.345,71.489 343.027,71.828 343.727 C 72.166 344.427,72.754 345.540,73.133 346.200 C 75.222 349.830,76.188 351.421,76.412 351.600 C 76.550 351.710,76.940 352.340,77.280 353.000 C 78.437 355.249,80.070 358.175,80.736 359.190 C 81.612 360.527,82.061 361.267,84.017 364.600 C 84.920 366.140,86.083 368.120,86.600 369.000 C 87.117 369.880,87.691 370.780,87.875 371.000 C 88.059 371.220,88.550 372.165,88.966 373.100 C 89.381 374.035,89.874 374.800,90.061 374.800 C 90.247 374.800,90.400 374.998,90.400 375.240 C 90.400 375.631,93.080 380.293,93.596 380.800 C 93.708 380.910,94.158 381.720,94.596 382.600 C 95.034 383.480,95.505 384.290,95.642 384.400 C 95.780 384.510,96.279 385.320,96.750 386.200 C 97.222 387.080,97.775 388.070,97.978 388.400 C 98.182 388.730,99.033 390.170,99.870 391.600 C 100.708 393.030,101.505 394.290,101.642 394.400 C 101.780 394.510,102.015 394.995,102.166 395.478 C 103.830 400.812,111.779 401.152,114.341 396.000 C 114.615 395.450,115.279 394.280,115.818 393.400 C 116.357 392.520,117.167 391.035,117.618 390.100 C 118.069 389.165,118.597 388.400,118.792 388.400 C 118.987 388.400,119.258 388.046,119.396 387.613 C 119.533 387.180,120.625 385.193,121.823 383.198 C 123.020 381.202,124.000 379.396,124.000 379.184 C 124.000 378.973,124.153 378.800,124.339 378.800 C 124.526 378.800,125.017 378.035,125.432 377.100 C 125.846 376.165,126.385 375.220,126.631 375.000 C 126.876 374.780,127.322 373.978,127.621 373.217 C 127.921 372.457,128.488 371.512,128.883 371.117 C 129.277 370.723,129.600 370.130,129.600 369.800 C 129.600 369.470,129.744 369.200,129.920 369.200 C 130.096 369.200,130.646 368.435,131.141 367.500 C 131.636 366.565,132.475 365.080,133.005 364.200 C 133.536 363.320,134.361 361.880,134.839 361.000 C 135.317 360.120,135.828 359.310,135.975 359.200 C 136.121 359.090,136.552 358.370,136.932 357.600 C 137.312 356.830,138.324 355.079,139.181 353.709 C 140.039 352.339,140.856 350.854,140.997 350.409 C 141.138 349.964,141.404 349.600,141.587 349.600 C 141.771 349.600,142.254 348.791,142.660 347.801 C 143.067 346.812,143.536 346.002,143.703 346.001 C 143.870 346.001,144.295 345.280,144.647 344.400 C 144.999 343.520,145.430 342.800,145.604 342.800 C 145.779 342.800,146.124 342.305,146.370 341.700 C 146.617 341.095,147.433 339.610,148.183 338.400 C 148.933 337.190,149.868 335.570,150.260 334.800 C 150.653 334.030,151.121 333.220,151.300 333.000 C 151.943 332.212,154.356 327.969,154.602 327.192 C 154.741 326.756,155.000 326.400,155.178 326.400 C 155.357 326.400,155.740 325.815,156.029 325.100 C 156.318 324.385,156.676 323.710,156.824 323.600 C 156.971 323.490,157.489 322.680,157.973 321.800 C 158.457 320.920,159.284 319.480,159.812 318.600 C 160.339 317.720,161.161 316.280,161.639 315.400 C 162.117 314.520,162.652 313.706,162.829 313.592 C 163.005 313.477,163.346 312.937,163.587 312.392 C 163.827 311.846,164.745 310.230,165.627 308.800 C 166.509 307.370,167.443 305.705,167.703 305.100 C 167.963 304.495,168.289 304.000,168.427 304.000 C 168.565 304.000,169.016 303.235,169.428 302.300 C 169.841 301.365,170.326 300.494,170.508 300.365 C 170.832 300.134,171.636 298.766,173.073 296.000 C 173.473 295.230,173.933 294.541,174.095 294.468 C 174.258 294.396,174.751 293.586,175.191 292.668 C 175.631 291.751,176.444 290.280,176.998 289.400 C 177.551 288.520,178.388 287.080,178.856 286.200 C 179.324 285.320,179.820 284.510,179.958 284.400 C 180.095 284.290,180.566 283.480,181.004 282.600 C 181.442 281.720,181.891 280.910,182.001 280.800 C 182.447 280.357,184.800 276.323,184.800 276.002 C 184.800 275.812,185.049 275.408,185.354 275.103 C 185.876 274.581,186.863 272.899,188.531 269.688 C 188.934 268.914,189.519 268.024,189.831 267.711 C 190.144 267.399,190.400 266.985,190.400 266.791 C 190.400 266.598,190.895 265.666,191.500 264.720 C 193.184 262.086,193.522 261.512,194.276 260.000 C 194.660 259.230,195.128 258.420,195.317 258.200 C 195.861 257.566,197.523 254.728,198.221 253.242 C 198.572 252.495,199.116 251.627,199.429 251.314 C 199.742 251.000,200.109 250.307,200.243 249.772 C 200.377 249.237,200.627 248.800,200.798 248.800 C 200.969 248.800,201.417 248.215,201.795 247.500 C 202.172 246.785,202.998 245.300,203.631 244.200 C 204.264 243.100,205.181 241.435,205.670 240.500 C 206.159 239.565,206.676 238.800,206.819 238.800 C 206.962 238.800,207.416 238.035,207.828 237.100 C 208.241 236.165,208.675 235.310,208.793 235.200 C 209.294 234.733,212.000 230.042,212.000 229.640 C 212.000 229.398,212.162 229.200,212.360 229.200 C 212.559 229.200,213.054 228.391,213.460 227.401 C 213.867 226.412,214.333 225.602,214.495 225.601 C 214.657 225.601,215.066 225.015,215.405 224.300 C 215.744 223.585,216.294 222.550,216.627 222.000 C 218.210 219.389,216.661 215.003,213.713 213.748 C 211.827 212.945,4.819 212.958,3.000 213.761 " stroke="none" fill="#2cdc74" fill-rule="evenodd"></path><path id="path1" d="M294.000 201.855 C 289.245 202.047,281.019 202.865,280.800 203.168 C 280.690 203.320,278.711 203.745,276.403 204.114 C 274.094 204.483,272.144 204.968,272.069 205.192 C 271.995 205.416,271.564 205.600,271.113 205.600 C 270.145 205.600,267.088 206.454,266.800 206.805 C 266.690 206.939,265.385 207.373,263.900 207.769 C 262.415 208.165,261.200 208.610,261.200 208.757 C 261.200 208.905,260.380 209.267,259.378 209.563 C 258.376 209.859,257.339 210.318,257.074 210.583 C 256.809 210.848,256.054 211.200,255.396 211.365 C 254.375 211.621,252.341 212.679,247.200 215.627 C 246.650 215.942,246.110 216.310,246.000 216.444 C 245.890 216.578,245.187 217.003,244.438 217.387 C 243.688 217.771,242.709 218.426,242.262 218.843 C 241.815 219.259,241.207 219.600,240.912 219.600 C 240.617 219.600,240.271 219.870,240.145 220.200 C 240.018 220.530,239.736 220.800,239.517 220.800 C 239.019 220.800,233.114 225.509,232.680 226.252 C 232.504 226.553,232.170 226.800,231.938 226.800 C 231.329 226.800,220.705 237.745,219.400 239.717 C 219.180 240.049,218.145 241.421,217.100 242.765 C 216.055 244.109,215.200 245.378,215.200 245.585 C 215.200 245.791,214.973 246.104,214.696 246.280 C 214.419 246.456,213.838 247.275,213.405 248.100 C 212.972 248.925,212.514 249.600,212.386 249.600 C 212.258 249.600,211.818 250.361,211.408 251.291 C 210.998 252.221,210.505 253.166,210.312 253.391 C 209.546 254.287,207.919 257.472,204.971 263.850 C 204.450 264.978,203.801 266.733,203.529 267.750 C 203.257 268.768,202.921 269.600,202.782 269.600 C 202.644 269.600,202.197 271.085,201.788 272.900 C 201.380 274.715,200.927 276.290,200.781 276.400 C 200.636 276.510,200.287 277.860,200.006 279.400 C 199.725 280.940,199.351 282.383,199.175 282.607 C 198.652 283.275,197.601 293.485,197.600 297.905 C 197.600 300.492,197.415 302.309,197.100 302.818 C 196.742 303.395,196.725 303.706,197.040 303.912 C 197.313 304.091,197.583 306.785,197.750 311.000 C 197.899 314.740,198.275 319.150,198.586 320.800 C 199.559 325.962,200.524 330.192,200.777 330.400 C 200.911 330.510,201.361 331.995,201.777 333.700 C 202.193 335.405,202.684 336.800,202.867 336.800 C 203.050 336.800,203.200 337.049,203.200 337.354 C 203.200 338.132,204.503 342.158,204.833 342.400 C 204.983 342.510,205.387 343.410,205.730 344.400 C 206.409 346.360,209.832 353.225,210.307 353.580 C 210.468 353.701,210.958 354.520,211.396 355.400 C 211.834 356.280,212.304 357.090,212.440 357.200 C 212.577 357.310,212.988 357.985,213.354 358.700 C 213.721 359.415,214.162 360.000,214.336 360.000 C 214.509 360.000,214.904 360.645,215.213 361.433 C 215.522 362.221,216.096 363.037,216.488 363.247 C 216.879 363.457,217.200 363.885,217.200 364.200 C 217.200 364.515,217.560 364.965,218.000 365.200 C 218.440 365.435,218.800 365.882,218.800 366.191 C 218.800 366.501,219.129 366.990,219.532 367.277 C 219.935 367.565,220.556 368.250,220.914 368.800 C 221.271 369.350,222.832 371.142,224.382 372.783 C 225.932 374.423,227.200 375.908,227.200 376.083 C 227.200 376.257,227.425 376.404,227.700 376.408 C 227.975 376.413,229.261 377.493,230.558 378.808 C 231.856 380.124,233.048 381.200,233.209 381.200 C 233.370 381.200,234.266 381.920,235.200 382.800 C 236.134 383.680,237.044 384.400,237.221 384.400 C 237.398 384.400,237.829 384.686,238.179 385.036 C 239.147 386.004,242.725 388.400,243.203 388.400 C 243.435 388.400,243.729 388.670,243.855 389.000 C 243.982 389.330,244.259 389.600,244.471 389.600 C 244.683 389.600,245.608 390.115,246.528 390.745 C 247.448 391.375,248.605 392.017,249.100 392.172 C 249.595 392.327,250.000 392.586,250.000 392.748 C 250.000 392.910,250.900 393.366,252.000 393.761 C 253.100 394.157,254.000 394.642,254.000 394.840 C 254.000 395.038,254.188 395.200,254.417 395.200 C 254.646 395.200,255.951 395.722,257.317 396.359 C 258.683 396.997,260.565 397.724,261.500 397.975 C 262.435 398.226,263.200 398.588,263.200 398.780 C 263.200 398.972,263.891 399.246,264.736 399.389 C 265.581 399.532,266.746 399.894,267.324 400.194 C 267.903 400.495,269.776 401.033,271.488 401.391 C 273.200 401.749,274.888 402.197,275.240 402.387 C 278.599 404.197,296.037 404.849,297.766 403.230 C 299.601 401.510,299.595 401.680,299.598 351.700 L 299.600 304.000 347.300 303.998 C 397.283 303.995,397.110 304.002,398.830 302.165 C 400.439 300.446,399.778 282.910,397.980 279.640 C 397.786 279.288,397.348 277.568,397.006 275.819 C 396.664 274.069,396.229 272.539,396.040 272.419 C 395.851 272.298,395.466 271.165,395.185 269.900 C 394.903 268.635,394.534 267.600,394.365 267.600 C 394.195 267.600,393.756 266.565,393.389 265.300 C 393.021 264.035,392.594 262.910,392.440 262.800 C 392.285 262.690,391.825 261.700,391.416 260.600 C 391.008 259.500,390.559 258.510,390.419 258.400 C 390.279 258.290,389.482 256.805,388.647 255.100 C 387.813 253.395,387.011 251.998,386.865 251.996 C 386.719 251.994,386.245 251.184,385.810 250.196 C 385.376 249.208,384.889 248.400,384.729 248.400 C 384.569 248.400,384.139 247.770,383.773 247.000 C 383.408 246.230,382.990 245.600,382.845 245.600 C 382.700 245.600,382.226 244.937,381.791 244.128 C 381.033 242.716,379.623 240.917,377.700 238.905 C 377.205 238.387,376.800 237.853,376.800 237.719 C 376.800 237.219,370.416 230.700,366.384 227.082 C 364.963 225.807,363.434 224.412,362.986 223.982 C 362.538 223.552,361.960 223.200,361.700 223.200 C 361.440 223.200,361.035 222.840,360.800 222.400 C 360.565 221.960,360.136 221.600,359.848 221.600 C 359.560 221.600,359.010 221.253,358.626 220.828 C 358.242 220.404,357.314 219.765,356.564 219.410 C 355.814 219.054,355.200 218.618,355.200 218.442 C 355.200 218.266,354.480 217.797,353.600 217.400 C 352.720 217.003,352.000 216.540,352.000 216.370 C 352.000 216.201,351.386 215.859,350.635 215.612 C 349.885 215.364,349.184 214.935,349.078 214.659 C 348.972 214.382,348.146 213.912,347.243 213.614 C 346.339 213.316,345.600 212.939,345.600 212.776 C 345.600 212.613,344.700 212.157,343.600 211.761 C 342.500 211.366,341.600 210.926,341.600 210.784 C 341.600 210.643,340.475 210.190,339.100 209.778 C 337.725 209.366,336.390 208.825,336.133 208.576 C 335.876 208.327,334.571 207.891,333.233 207.607 C 331.895 207.323,330.800 206.948,330.800 206.774 C 330.800 206.600,329.765 206.231,328.500 205.953 C 327.235 205.676,326.105 205.313,325.990 205.146 C 325.874 204.979,323.894 204.524,321.590 204.134 C 319.285 203.744,317.310 203.311,317.200 203.171 C 316.694 202.526,300.348 201.599,294.000 201.855 " stroke="none" fill="#fcc404" fill-rule="evenodd"></path><path id="path2" d="M92.800 0.256 C 88.761 0.623,81.792 1.674,81.409 1.974 C 81.184 2.150,79.740 2.520,78.200 2.795 C 76.660 3.071,74.860 3.534,74.200 3.824 C 73.540 4.115,72.190 4.562,71.200 4.818 C 70.210 5.074,69.310 5.408,69.200 5.561 C 69.090 5.713,67.875 6.173,66.500 6.583 C 65.125 6.992,64.000 7.439,64.000 7.576 C 64.000 7.713,63.180 8.067,62.178 8.363 C 61.176 8.659,60.141 9.111,59.878 9.368 C 59.615 9.624,58.770 10.081,58.000 10.383 C 57.230 10.685,56.330 11.158,56.000 11.435 C 55.670 11.711,54.912 12.059,54.316 12.208 C 53.720 12.357,53.021 12.734,52.761 13.047 C 52.502 13.359,51.640 13.917,50.845 14.286 C 50.050 14.655,49.256 15.192,49.080 15.478 C 48.904 15.765,48.533 16.000,48.256 16.000 C 47.978 16.000,47.402 16.315,46.975 16.700 C 46.252 17.353,43.521 19.289,42.037 20.200 C 41.678 20.420,40.998 20.960,40.525 21.400 C 39.727 22.142,38.793 22.952,34.000 27.058 C 33.010 27.906,31.994 28.870,31.742 29.200 C 31.491 29.530,30.591 30.530,29.742 31.422 C 27.817 33.448,23.813 38.100,22.876 39.400 C 22.718 39.620,21.916 40.724,21.094 41.854 C 20.272 42.983,19.600 44.108,19.600 44.354 C 19.600 44.599,19.428 44.800,19.219 44.800 C 19.009 44.800,18.539 45.430,18.173 46.200 C 17.808 46.970,17.369 47.600,17.198 47.600 C 17.027 47.600,16.599 48.320,16.247 49.200 C 15.895 50.080,15.461 50.800,15.282 50.800 C 15.104 50.800,14.634 51.700,14.239 52.800 C 13.843 53.900,13.387 54.800,13.224 54.800 C 13.061 54.800,12.690 55.520,12.400 56.400 C 12.110 57.280,11.728 58.000,11.551 58.000 C 11.375 58.000,10.968 58.885,10.647 59.966 C 10.326 61.047,9.791 62.352,9.458 62.866 C 9.125 63.380,8.639 64.655,8.379 65.700 C 8.118 66.745,7.780 67.600,7.628 67.600 C 7.476 67.600,7.024 69.040,6.625 70.800 C 6.225 72.560,5.767 74.000,5.606 74.000 C 5.445 74.000,5.091 75.395,4.820 77.100 C 4.548 78.805,4.226 80.470,4.103 80.800 C 3.652 82.009,3.538 82.698,2.947 87.800 C 1.933 96.540,2.641 119.661,3.976 121.400 C 4.145 121.620,4.515 123.195,4.798 124.900 C 5.081 126.605,5.427 128.000,5.566 128.000 C 5.706 128.000,6.155 129.530,6.565 131.400 C 6.975 133.270,7.428 134.800,7.572 134.800 C 7.716 134.800,8.057 135.632,8.329 136.650 C 8.601 137.667,9.256 139.422,9.786 140.550 C 10.315 141.677,10.869 143.095,11.017 143.700 C 11.166 144.305,11.418 144.800,11.579 144.800 C 11.740 144.800,12.110 145.520,12.400 146.400 C 12.690 147.280,13.065 148.000,13.233 148.000 C 13.401 148.000,13.745 148.629,13.999 149.397 C 14.253 150.165,14.682 150.930,14.953 151.097 C 15.225 151.264,15.689 152.030,15.985 152.800 C 16.281 153.570,16.728 154.380,16.979 154.600 C 17.229 154.820,17.749 155.675,18.136 156.500 C 18.522 157.325,18.987 158.000,19.170 158.000 C 19.353 158.000,19.727 158.540,20.000 159.200 C 20.273 159.860,20.616 160.400,20.762 160.400 C 20.908 160.400,21.361 160.965,21.769 161.655 C 22.545 162.969,23.199 163.794,24.700 165.356 C 25.195 165.870,25.600 166.437,25.600 166.614 C 25.600 166.792,26.410 167.713,27.400 168.662 C 28.390 169.610,29.200 170.506,29.200 170.652 C 29.200 171.027,33.733 175.582,34.116 175.592 C 34.289 175.596,35.295 176.455,36.350 177.500 C 37.405 178.545,38.852 179.850,39.565 180.400 C 40.277 180.950,41.342 181.806,41.930 182.302 C 42.519 182.799,43.315 183.306,43.700 183.429 C 44.085 183.553,44.400 183.817,44.400 184.017 C 44.400 184.216,44.985 184.679,45.700 185.046 C 46.415 185.412,47.090 185.835,47.200 185.986 C 47.310 186.137,48.027 186.607,48.793 187.030 C 49.559 187.454,50.385 187.984,50.629 188.208 C 50.873 188.432,52.272 189.224,53.736 189.968 C 55.201 190.711,56.400 191.444,56.400 191.595 C 56.400 191.746,57.390 192.207,58.600 192.618 C 59.810 193.029,60.800 193.479,60.800 193.618 C 60.800 193.757,61.835 194.214,63.100 194.635 C 64.365 195.056,65.610 195.597,65.867 195.838 C 66.124 196.079,67.429 196.509,68.767 196.793 C 70.105 197.077,71.200 197.447,71.200 197.615 C 71.200 197.783,72.145 198.142,73.300 198.412 C 74.455 198.683,75.580 199.041,75.800 199.209 C 76.294 199.584,82.134 200.800,83.443 200.800 C 83.969 200.800,84.400 200.957,84.400 201.148 C 84.400 201.473,88.761 202.027,96.115 202.638 C 99.317 202.904,102.800 202.108,102.800 201.111 C 102.800 200.878,103.115 200.458,103.500 200.176 C 104.159 199.695,104.206 196.807,104.306 150.832 L 104.412 102.000 152.278 102.000 L 200.144 102.000 202.072 101.129 C 203.132 100.649,204.000 100.028,204.000 99.749 C 204.000 99.469,204.315 99.063,204.700 98.847 C 205.487 98.405,205.568 89.135,204.788 88.867 C 204.574 88.793,204.400 88.196,204.400 87.539 C 204.400 85.714,203.136 77.427,202.823 77.200 C 202.671 77.090,202.237 75.571,201.859 73.824 C 201.481 72.077,201.022 70.457,200.838 70.224 C 200.655 69.991,200.283 68.855,200.012 67.700 C 199.742 66.545,199.387 65.600,199.224 65.600 C 199.062 65.600,198.594 64.430,198.185 63.000 C 197.776 61.570,197.311 60.400,197.153 60.400 C 196.994 60.400,196.565 59.500,196.200 58.400 C 195.835 57.300,195.406 56.400,195.247 56.400 C 195.088 56.400,194.634 55.500,194.239 54.400 C 193.843 53.300,193.403 52.398,193.260 52.396 C 193.117 52.394,192.645 51.584,192.210 50.596 C 191.776 49.608,191.281 48.800,191.110 48.800 C 190.940 48.800,190.800 48.564,190.800 48.275 C 190.800 47.987,190.476 47.402,190.080 46.975 C 189.684 46.549,189.009 45.570,188.580 44.800 C 188.151 44.030,187.575 43.256,187.300 43.080 C 187.025 42.904,186.800 42.501,186.800 42.184 C 186.800 41.866,186.440 41.382,186.000 41.107 C 185.560 40.832,185.200 40.444,185.200 40.245 C 185.200 39.936,184.012 38.366,181.650 35.555 C 180.382 34.045,169.952 23.719,168.767 22.800 C 168.057 22.250,166.896 21.305,166.186 20.700 C 165.476 20.095,164.712 19.600,164.490 19.600 C 164.268 19.600,163.982 19.330,163.855 19.000 C 163.729 18.670,163.360 18.400,163.035 18.400 C 162.711 18.400,162.210 18.084,161.923 17.698 C 161.635 17.312,160.680 16.637,159.800 16.198 C 158.920 15.759,158.096 15.259,157.968 15.086 C 157.644 14.648,155.290 13.300,153.500 12.526 C 152.675 12.170,152.000 11.753,152.000 11.600 C 152.000 11.447,151.235 10.984,150.300 10.572 C 149.365 10.159,148.510 9.709,148.400 9.570 C 148.290 9.431,147.255 9.007,146.100 8.627 C 144.945 8.247,144.000 7.808,144.000 7.651 C 144.000 7.494,143.153 7.139,142.117 6.862 C 141.081 6.585,139.686 6.106,139.017 5.797 C 136.674 4.714,130.499 2.841,128.359 2.563 C 127.172 2.408,126.107 2.141,125.994 1.970 C 125.222 0.798,100.748 -0.465,92.800 0.256 " stroke="none" fill="#4c6cfc" fill-rule="evenodd"></path><path id="path3" d="" stroke="none" fill="#60e03c" fill-rule="evenodd"></path><path id="path4" d="" stroke="none" fill="#60a498" fill-rule="evenodd"></path></g></svg>